<svg width="20" height="20" viewBox="0 0 20 20" fill="none" xmlns="http://www.w3.org/2000/svg">
<path d="M17.5 6.8744H13.7031L14.3648 3.23612C14.3914 3.07435 14.3534 2.90862 14.2589 2.77463C14.1645 2.64065 14.0211 2.54914 13.8599 2.51984C13.6986 2.49053 13.5322 2.52577 13.3966 2.61796C13.2611 2.71014 13.1672 2.8519 13.1352 3.01268L12.432 6.8744H8.70313L9.36484 3.23612C9.39143 3.07435 9.35339 2.90862 9.25893 2.77463C9.16447 2.64065 9.02114 2.54914 8.85985 2.51984C8.69856 2.49053 8.53221 2.52577 8.39665 2.61796C8.26109 2.71014 8.16718 2.8519 8.13516 3.01268L7.43281 6.8744H3.75C3.58424 6.8744 3.42527 6.94025 3.30806 7.05746C3.19085 7.17467 3.125 7.33364 3.125 7.4994C3.125 7.66516 3.19085 7.82413 3.30806 7.94134C3.42527 8.05855 3.58424 8.1244 3.75 8.1244H7.20547L6.52344 11.8744H2.5C2.33424 11.8744 2.17527 11.9402 2.05806 12.0575C1.94085 12.1747 1.875 12.3336 1.875 12.4994C1.875 12.6652 1.94085 12.8241 2.05806 12.9413C2.17527 13.0586 2.33424 13.1244 2.5 13.1244H6.29687L5.63516 16.7627C5.60555 16.9257 5.64192 17.0939 5.73627 17.2301C5.83062 17.3664 5.97523 17.4596 6.13828 17.4892C6.17513 17.4961 6.21253 17.4995 6.25 17.4994C6.39623 17.4992 6.53776 17.4477 6.64996 17.3539C6.76216 17.2602 6.83792 17.13 6.86406 16.9861L7.56719 13.1244H11.2969L10.6352 16.7627C10.6056 16.9257 10.6419 17.0939 10.7363 17.2301C10.8306 17.3664 10.9752 17.4596 11.1383 17.4892C11.1751 17.4961 11.2125 17.4995 11.25 17.4994C11.3962 17.4992 11.5378 17.4477 11.65 17.3539C11.7622 17.2602 11.8379 17.13 11.8641 16.9861L12.5672 13.1244H16.25C16.4158 13.1244 16.5747 13.0586 16.6919 12.9413C16.8092 12.8241 16.875 12.6652 16.875 12.4994C16.875 12.3336 16.8092 12.1747 16.6919 12.0575C16.5747 11.9402 16.4158 11.8744 16.25 11.8744H12.7945L13.4766 8.1244H17.5C17.6658 8.1244 17.8247 8.05855 17.9419 7.94134C18.0592 7.82413 18.125 7.66516 18.125 7.4994C18.125 7.33364 18.0592 7.17467 17.9419 7.05746C17.8247 6.94025 17.6658 6.8744 17.5 6.8744ZM11.5234 11.8744H7.79453L8.47656 8.1244H12.2055L11.5234 11.8744Z" fill="#E7E7EF"/>
</svg>
